# xmcd
#
# Track frame offsets:
#	150
#	15972
#	36690
#
# Disc length: 687 seconds
#
# Revision: 11
# Processed by: cddbd v1.5.2PL0 Copyright (c) Steve Scherf et al.
# Submitted via: audiograbber 1.83.01
#
DISCID=1c02ad03
DTITLE=LFO - Maxi
DYEAR=2000
DGENRE=Pop
TTITLE0=West Side Story ( Radio Version )
TTITLE1=Summer Girls 2000 ( Remix Version )
TTITLE2=West Side Story ( Kickin' Guitar Version )
EXTD=YEAR: 2000
EXTT0=
EXTT1=
EXTT2=
PLAYORDER=
